<?xml version="1.0" standalone="no"?>
<!DOCTYPE svg PUBLIC "-//W3C//DTD SVG 20010904//EN"
 "http://www.w3.org/TR/2001/REC-SVG-20010904/DTD/svg10.dtd">
<svg version="1.0" xmlns="http://www.w3.org/2000/svg"
 width="400.000000pt" height="400.000000pt" viewBox="0 0 400.000000 400.000000"
 preserveAspectRatio="xMidYMid meet">
<metadata>
Created by potrace 1.14, written by Peter Selinger 2001-2017
</metadata>
<g transform="translate(0.000000,400.000000) scale(0.100000,-0.100000)"
fill="#000000" stroke="none">
<path d="M2186 1682 c-3 -2 -12 -5 -23 -7 -10 -2 -18 -4 -18 -5 0 -2 -139 -11
-210 -14 -53 -2 -80 -11 -105 -32 -8 -7 -44 -17 -79 -23 -35 -6 -66 -13 -70
-17 -3 -3 4 -14 17 -25 17 -14 26 -34 32 -80 7 -49 15 -68 40 -92 37 -37 44
-62 36 -138 -3 -32 -4 -59 -1 -59 25 0 85 37 99 60 29 50 50 55 104 24 26 -14
67 -38 92 -51 25 -14 52 -31 60 -38 8 -7 42 -22 74 -32 l59 -19 40 -90 c21
-49 45 -110 52 -136 8 -25 18 -56 25 -67 10 -20 11 -70 0 -81 -3 -3 -10 -14
-17 -26 -10 -19 -9 -20 12 -17 16 4 21 10 18 24 -3 10 -1 19 4 19 5 0 7 19 5
41 -5 53 13 44 22 -10 3 -22 11 -43 17 -47 8 -4 9 40 4 153 -7 147 -6 161 11
181 10 12 27 22 37 22 9 0 20 6 23 14 8 20 50 29 75 15 12 -6 19 -7 15 -1 -14
23 217 37 236 15 6 -7 17 -13 25 -13 8 0 21 -6 28 -12 27 -24 69 -53 95 -65
31 -15 74 -60 90 -96 12 -27 16 -57 14 -100 -5 -89 -8 -102 -22 -120 -7 -8
-14 -29 -14 -46 -1 -20 -7 -33 -19 -36 -10 -3 -21 -16 -25 -28 -4 -12 -11 -25
-16 -28 -6 -4 6 -9 26 -13 20 -4 36 -11 36 -15 0 -16 -72 -3 -85 16 -13 17
-14 17 -37 -4 -20 -19 -32 -21 -68 -13 -3 0 3 7 13 14 15 12 15 15 2 26 -8 7
-15 9 -15 5 0 -4 -6 -3 -13 3 -10 8 -13 6 -13 -11 0 -12 5 -26 10 -30 7 -5 3
-7 -9 -5 -11 2 -20 10 -20 17 0 8 -6 16 -12 18 -7 3 -13 0 -13 -6 0 -20 -52
-66 -76 -66 -13 -1 -23 4 -21 10 2 5 11 9 20 7 11 -2 15 2 11 13 -7 17 -59 21
-69 5 -3 -5 1 -10 9 -10 9 0 16 -4 16 -10 0 -11 -24 -13 -69 -4 -34 7 -42 24
-11 24 11 0 20 7 20 15 0 8 -4 15 -10 15 -5 0 -10 -5 -10 -10 0 -7 -19 -9 -50
-7 -27 3 -50 1 -50 -4 0 -5 5 -9 10 -9 6 0 10 -6 10 -14 0 -20 -38 -8 -50 15
-8 15 -15 17 -35 9 -29 -11 -40 1 -26 28 7 13 6 23 -2 31 -9 10 -8 14 6 22 9
6 17 16 17 24 0 18 -20 30 -29 17 -3 -6 -24 -12 -46 -14 -28 -2 -41 -8 -43
-20 -2 -10 -17 -31 -33 -49 -16 -17 -29 -37 -29 -44 0 -9 -12 -11 -44 -8 -24
3 -60 0 -80 -7 -31 -10 -40 -9 -54 2 -9 8 -26 18 -37 22 -15 5 -16 9 -6 15 10
6 9 10 -5 15 -10 4 -15 4 -11 0 4 -4 -1 -13 -11 -20 -15 -11 -14 -13 11 -19
15 -4 27 -11 27 -16 0 -5 6 -9 14 -9 9 0 12 -7 9 -21 -5 -16 -8 -18 -15 -7 -7
9 -8 6 -4 -11 4 -18 2 -21 -7 -12 -6 6 -19 11 -29 11 -10 0 -20 10 -24 25 -5
22 -10 24 -48 20 -22 -3 -47 -13 -53 -22 -7 -9 -16 -13 -20 -9 -4 4 -1 11 6
15 9 6 10 11 2 15 -13 8 -71 -24 -71 -39 0 -5 -7 3 -16 20 -14 27 -14 30 2 42
10 7 21 13 26 13 4 0 8 14 8 30 0 31 20 43 20 13 1 -17 1 -17 14 -1 13 18 42
26 32 9 -3 -4 12 -3 34 2 39 11 39 11 17 26 -12 9 -47 18 -77 21 -48 4 -57 9
-68 33 -7 15 -19 27 -26 27 -6 0 -17 5 -23 11 -6 6 -36 21 -66 33 -63 26 -127
72 -127 92 0 8 5 14 10 14 20 0 10 40 -15 62 -20 17 -24 28 -20 50 6 24 3 28
-22 34 -142 32 -228 63 -248 89 -6 7 -40 15 -78 18 -74 5 -127 33 -146 75 -19
40 -13 62 18 73 22 8 30 18 34 46 4 21 2 42 -5 50 -7 9 -7 25 0 52 7 31 6 45
-4 60 -26 36 -79 61 -130 61 -93 0 -145 -65 -130 -163 6 -36 14 -51 41 -72 19
-14 35 -31 35 -38 0 -7 -27 -46 -61 -87 -71 -89 -113 -172 -130 -258 -20 -104
-4 -173 55 -240 l19 -22 -41 0 c-22 0 -44 -4 -47 -10 -4 -6 -55 -10 -120 -10
-72 0 -116 -4 -121 -11 -3 -6 -22 -17 -40 -25 -44 -18 -43 -34 0 -34 19 0 38
-4 41 -10 3 -5 15 -10 26 -10 10 0 19 -6 19 -14 0 -18 45 -29 68 -18 20 11 45
4 36 -9 -3 -5 -16 -9 -29 -9 -18 0 -23 -4 -19 -15 4 -9 0 -15 -10 -15 -9 0
-16 5 -16 10 0 6 -6 10 -14 10 -8 0 -16 5 -18 11 -2 6 -17 11 -33 11 -17 0
-40 9 -52 21 -25 23 -43 17 -23 -8 10 -12 10 -15 -1 -16 -33 -3 -63 4 -76 17
-20 20 -24 17 -17 -11 3 -14 3 -32 0 -42 -6 -14 -8 -14 -20 3 -8 10 -12 22
-10 26 7 11 -14 10 -37 -2 -10 -6 -19 -20 -19 -31 0 -12 -4 -17 -11 -14 -6 4
-8 13 -5 20 4 12 -32 55 -46 55 -3 0 -8 -9 -11 -21 -3 -12 -10 -18 -15 -15
-19 11 -81 15 -88 5 -3 -6 -10 -6 -17 -1 -29 22 -42 19 -44 -9 -1 -17 3 -29
10 -29 7 0 6 -4 -3 -10 -13 -8 -12 -11 5 -25 16 -12 17 -14 3 -9 -17 6 -18 -9
-18 -220 l0 -226 2000 0 2000 0 0 335 0 335 -24 0 c-14 0 -28 4 -31 10 -3 5
-20 7 -37 3 -22 -4 -29 -3 -24 6 4 6 0 14 -8 17 -14 5 -14 9 0 35 21 41 10 36
-21 -8 -14 -21 -27 -37 -30 -35 -3 1 -4 -1 -2 -5 1 -5 13 -7 27 -6 14 1 17 -1
8 -4 -19 -5 -25 -25 -7 -21 6 2 13 -2 16 -9 3 -7 -7 -11 -27 -11 -17 1 -26 4
-20 8 8 5 1 15 -19 30 -31 22 -61 21 -61 -1 0 -10 -25 -8 -62 6 -9 4 -14 -3
-16 -20 -1 -18 3 -24 16 -22 9 1 17 -2 17 -8 0 -5 -13 -9 -30 -8 -45 2 -45 2
-45 18 0 8 -9 15 -20 15 -11 0 -20 5 -20 11 0 7 -9 9 -22 6 -12 -4 -28 -1 -35
5 -11 8 -12 7 -7 -6 3 -9 18 -16 33 -17 l26 -1 -25 -8 c-41 -13 -50 -11 -50
11 0 16 -4 19 -20 14 -11 -4 -20 -2 -20 4 0 20 -52 12 -57 -8 -7 -27 -44 -31
-95 -8 l-45 19 20 41 c16 33 17 45 7 60 -12 19 -13 32 -24 182 -5 66 -4 77 6
61 7 -11 26 -33 41 -50 15 -16 25 -36 22 -44 -3 -9 1 -12 15 -7 14 4 20 2 20
-8 0 -20 55 -45 85 -39 23 4 24 6 11 31 -7 14 -23 44 -34 66 -23 45 -72 192
-72 215 0 8 -20 56 -45 105 -32 64 -65 111 -110 157 -73 76 -121 97 -237 104
-40 2 -143 8 -228 13 -120 6 -165 13 -200 28 -25 11 -65 23 -90 27 -24 4 -49
10 -55 15 -5 4 -32 14 -60 21 -27 7 -55 17 -61 22 -11 8 -80 8 -88 0z m-834
-791 c150 -70 178 -95 178 -157 0 -28 -5 -44 -12 -45 -7 -1 -26 -3 -43 -5 -16
-2 -101 -5 -187 -8 -125 -3 -159 -1 -168 9 -8 9 -22 12 -41 8 -35 -7 -40 16
-9 47 11 11 20 27 20 35 0 8 5 15 10 15 6 0 10 8 10 18 0 11 9 27 21 38 12 10
32 38 46 61 14 24 30 43 36 43 7 0 69 -27 139 -59z m1085 -23 c-3 -8 -6 -5 -6
6 -1 11 2 17 5 13 3 -3 4 -12 1 -19z m792 -73 c1 -35 -2 -45 -14 -45 -8 0 -15
-6 -15 -12 0 -9 -4 -8 -10 2 -5 8 -7 23 -4 34 4 10 1 22 -6 26 -9 6 -8 14 5
34 23 35 41 20 44 -39z m-25 -90 c3 -8 2 -14 -2 -13 -4 1 -15 -2 -25 -7 -26
-11 -34 3 -11 20 24 18 31 18 38 0z m583 -49 c-3 -8 -1 -17 6 -19 8 -3 5 -7
-6 -12 -10 -4 -20 -5 -23 -2 -9 8 6 47 18 47 5 0 8 -6 5 -14z m189 -11 c-11
-8 -31 -14 -45 -14 l-26 2 25 4 c14 3 29 9 35 14 5 5 14 9 20 9 5 0 1 -7 -9
-15z m-387 -35 c-13 -9 -39 -3 -39 9 0 3 10 11 23 16 16 8 23 7 25 -4 2 -7 -2
-17 -9 -21z m142 -3 c-8 -8 -11 -5 -11 9 0 27 14 41 18 19 2 -9 -1 -22 -7 -28z
m-211 -7 c0 -5 -5 -10 -11 -10 -5 0 -7 5 -4 10 3 6 8 10 11 10 2 0 4 -4 4 -10z
m-925 -40 c3 -5 -1 -10 -9 -10 -9 0 -16 5 -16 10 0 6 4 10 9 10 6 0 13 -4 16
-10z m237 -15 c-2 -14 -8 -25 -13 -25 -14 0 -11 38 4 43 6 3 13 6 13 6 1 1 -1
-10 -4 -24z m-362 0 c0 -8 -4 -15 -10 -15 -5 0 -10 7 -10 15 0 8 5 15 10 15 6
0 10 -7 10 -15z m490 -5 c0 -5 -6 -10 -14 -10 -8 0 -18 5 -21 10 -3 6 3 10 14
10 12 0 21 -4 21 -10z m50 0 c0 -5 -2 -10 -4 -10 -3 0 -8 5 -11 10 -3 6 -1 10
4 10 6 0 11 -4 11 -10z m-880 -10 c0 -5 -5 -10 -11 -10 -5 0 -7 5 -4 10 3 6 8
10 11 10 2 0 4 -4 4 -10z m382 -5 c0 -5 -5 -11 -11 -13 -6 -2 -11 4 -11 13 0
9 5 15 11 13 6 -2 11 -8 11 -13z m-2052 -5 c0 -5 -7 -10 -16 -10 -8 0 -12 5
-9 10 3 6 10 10 16 10 5 0 9 -4 9 -10z m1560 0 c0 -5 -7 -10 -15 -10 -8 0 -15
5 -15 10 0 6 7 10 15 10 8 0 15 -4 15 -10z m-1910 -10 c12 -8 9 -10 -12 -10
-16 0 -28 5 -28 10 0 13 20 13 40 0z m270 -15 c0 -8 -4 -15 -10 -15 -5 0 -10
7 -10 15 0 8 5 15 10 15 6 0 10 -7 10 -15z m2140 -20 c-15 -18 -26 -19 -33 -2
-3 8 4 14 20 15 22 2 24 0 13 -13z m-2123 -11 c-3 -3 -12 -4 -19 -1 -8 3 -5 6
6 6 11 1 17 -2 13 -5z"/>
<path d="M3788 1153 c7 -3 16 -2 19 1 4 3 -2 6 -13 5 -11 0 -14 -3 -6 -6z"/>
<path d="M3961 759 c-18 -6 -31 -12 -29 -15 8 -7 68 8 68 17 0 5 -1 9 -2 8 -2
0 -18 -5 -37 -10z"/>
<path d="M1938 619 c-26 -14 -22 -29 7 -29 14 0 25 -4 25 -10 0 -5 4 -10 9
-10 5 0 3 14 -5 30 -9 17 -16 30 -17 30 -1 0 -10 -5 -19 -11z"/>
<path d="M2476 621 c-3 -5 3 -11 14 -14 13 -3 20 0 20 9 0 15 -26 19 -34 5z"/>
<path d="M202 607 c10 -8 15 -16 12 -19 -2 -3 4 -8 16 -11 11 -3 20 -2 20 1
-1 15 -17 30 -40 36 -23 6 -23 6 -8 -7z"/>
<path d="M2580 616 c0 -2 7 -7 16 -10 8 -3 12 -2 9 4 -6 10 -25 14 -25 6z"/>
<path d="M57 580 c6 -22 23 -37 23 -20 0 6 10 8 24 4 14 -3 33 -1 43 6 16 10
16 11 1 6 -10 -3 -33 1 -52 9 -45 19 -45 19 -39 -5z"/>
<path d="M290 591 c0 -5 5 -13 10 -16 6 -3 10 -2 10 4 0 5 -4 13 -10 16 -5 3
-10 2 -10 -4z"/>
<path d="M1875 590 c3 -5 10 -10 16 -10 5 0 9 5 9 10 0 6 -7 10 -16 10 -8 0
-12 -4 -9 -10z"/>
<path d="M2140 590 c0 -6 7 -10 15 -10 8 0 15 2 15 4 0 2 -7 6 -15 10 -8 3
-15 1 -15 -4z"/>
<path d="M20 580 c0 -5 5 -10 10 -10 6 0 10 5 10 10 0 6 -4 10 -10 10 -5 0
-10 -4 -10 -10z"/>
<path d="M373 573 c9 -9 20 -13 24 -9 4 4 1 11 -7 16 -25 16 -35 11 -17 -7z"/>
<path d="M1835 570 c-3 -5 -1 -10 4 -10 6 0 11 5 11 10 0 6 -2 10 -4 10 -3 0
-8 -4 -11 -10z"/>
</g>
</svg>
